<svg width="24" height="24" viewBox="0 0 24 24" fill="none" xmlns="http://www.w3.org/2000/svg">
<rect width="24" height="24" rx="4" fill="#F8F9FC"/>
<path d="M12.0005 12.0142C11.8881 12.0142 11.7969 12.1061 11.7969 12.2185C11.7969 12.3316 11.8888 12.4228 12.0013 12.4228C12.1136 12.4221 12.2055 12.3309 12.2055 12.2185C12.2055 12.1054 12.1136 12.0142 12.0013 12.0142" stroke="#1A5CEB" stroke-width="1.125" stroke-linecap="round" stroke-linejoin="round"/>
<path fill-rule="evenodd" clip-rule="evenodd" d="M8.58105 12.2178C8.58105 14.1066 10.1122 15.6378 12.0018 15.6378C13.8906 15.6378 15.4217 14.1066 15.4217 12.2178C15.4217 10.329 13.8906 8.79785 12.0018 8.79785C10.1122 8.79785 8.58105 10.329 8.58105 12.2178Z" stroke="#1A5CEB" stroke-width="1.125" stroke-linecap="round" stroke-linejoin="round"/>
<path d="M15.7027 5.25L16.2633 7.09866L14.4248 7.65625" stroke="#1A5CEB" stroke-width="1.125" stroke-linecap="round" stroke-linejoin="round"/>
<path d="M16.0885 7.12479C14.9689 6.22496 13.5466 5.68652 11.9985 5.68652C8.39035 5.68652 5.46533 8.61154 5.46533 12.2198C5.46533 15.8279 8.39035 18.7529 11.9985 18.7529C15.6067 18.7529 18.5317 15.8279 18.5317 12.2198C18.5317 11.8045 18.493 11.3982 18.4189 11.0045" stroke="#1A5CEB" stroke-width="1.125" stroke-linecap="round" stroke-linejoin="round"/>
</svg>
