<svg width="24" height="24" viewBox="0 0 24 24" fill="none" xmlns="http://www.w3.org/2000/svg">
<rect width="24" height="24" rx="4" fill="#F8F9FC"/>
<path d="M5.25 9.3518V8.16892C5.25 6.55694 6.55694 5.25 8.16964 5.25H9.13654" stroke="#1A5CEB" stroke-width="1.35" stroke-linecap="round" stroke-linejoin="round"/>
<path d="M5.25 14.6489V15.8318C5.25 17.4438 6.55694 18.7508 8.16964 18.7508H9.11245" stroke="#1A5CEB" stroke-width="1.35" stroke-linecap="round" stroke-linejoin="round"/>
<path d="M18.7503 14.6489V15.8318C18.7503 17.4438 17.4433 18.7508 15.8306 18.7508H14.8638" stroke="#1A5CEB" stroke-width="1.35" stroke-linecap="round" stroke-linejoin="round"/>
<path d="M18.7491 9.3518V8.16892C18.7491 6.55694 17.4423 5.25 15.8295 5.25H14.8867" stroke="#1A5CEB" stroke-width="1.35" stroke-linecap="round" stroke-linejoin="round"/>
<path d="M12 15.1865C13.6581 15.1865 15.1747 13.9942 16.0287 12.0077C15.1747 10.0211 13.6581 8.82886 12 8.82886C10.3437 8.82886 8.82703 10.0211 7.97314 12.0077C8.82703 13.9951 10.3437 15.1865 12.0018 15.1865H12Z" stroke="#1A5CEB" stroke-width="1.35" stroke-linecap="round" stroke-linejoin="round"/>
<path fill-rule="evenodd" clip-rule="evenodd" d="M13.1311 12.0086C13.1311 12.6322 12.625 13.1384 12.0013 13.1384C11.3773 13.1384 10.8711 12.6322 10.8711 12.0086C10.8711 11.3845 11.3773 10.8784 12.0013 10.8784C12.625 10.8784 13.1311 11.3845 13.1311 12.0086Z" stroke="#1A5CEB" stroke-width="1.35" stroke-linecap="round" stroke-linejoin="round"/>
</svg>
