<svg width="10" height="10" viewBox="0 0 10 10" fill="none" xmlns="http://www.w3.org/2000/svg">
<path opacity="0.2" d="M10 5C10 5.98891 9.70675 6.9556 9.15735 7.77785C8.60794 8.60009 7.82705 9.24096 6.91342 9.6194C5.99979 9.99783 4.99445 10.0969 4.02455 9.90392C3.05465 9.711 2.16373 9.23479 1.46447 8.53553C0.765205 7.83627 0.289002 6.94535 0.0960758 5.97545C-0.0968502 5.00555 0.00216643 4.00021 0.380605 3.08658C0.759043 2.17295 1.3999 1.39206 2.22215 0.842652C3.0444 0.293245 4.01109 0 5 0C6.32608 0 7.59785 0.526784 8.53553 1.46447C9.47322 2.40215 10 3.67392 10 5Z" fill="#1A5CEB"/>
<path d="M6.66668 5.00004C6.66668 5.32968 6.56893 5.65191 6.38579 5.92599C6.20266 6.20007 5.94236 6.41369 5.63781 6.53984C5.33327 6.66598 4.99816 6.69899 4.67486 6.63468C4.35156 6.57037 4.05459 6.41164 3.8215 6.17855C3.58841 5.94546 3.42968 5.64849 3.36537 5.32519C3.30106 5.00189 3.33407 4.66678 3.46021 4.36223C3.58636 4.05769 3.79998 3.79739 4.07406 3.61426C4.34814 3.43112 4.67038 3.33337 5.00001 3.33337C5.44204 3.33337 5.86596 3.50897 6.17852 3.82153C6.49108 4.13409 6.66668 4.55801 6.66668 5.00004Z" fill="#1A5CEB"/>
</svg>
