<svg width="70" height="14" viewBox="0 0 70 14" fill="none" xmlns="http://www.w3.org/2000/svg">
<g clip-path="url(#clip0_4248_35521)">
<g clip-path="url(#clip1_4248_35521)">
<g clip-path="url(#clip2_4248_35521)">
<g clip-path="url(#clip3_4248_35521)">
<g clip-path="url(#clip4_4248_35521)">
<g clip-path="url(#clip5_4248_35521)">
<g clip-path="url(#clip6_4248_35521)">
<path d="M9.05165 10.9519V13.6388H0.128296V0.219315H9.05165V2.90629H2.73094V5.58942H7.00671V8.27639H2.73094V10.9519H9.05165ZM21.2841 0.219315V13.6388H18.4992L13.4799 4.80365V13.6388H10.8735V0.219315H13.662L18.6814 9.06217V0.219315H21.2841ZM34.0556 6.98465V12.2819C33.4508 12.8135 32.7766 13.221 32.033 13.5047C31.2869 13.7883 30.5123 13.9302 29.7092 13.9302C29.092 13.9302 28.4971 13.8471 27.9245 13.681C27.352 13.5149 26.8178 13.2811 26.3221 12.9796C25.8263 12.6755 25.3727 12.3139 24.9612 11.8948C24.5498 11.4732 24.199 11.0043 23.909 10.4881C23.619 9.97444 23.3935 9.4212 23.2323 8.82835C23.0712 8.23551 22.9907 7.62094 22.9907 6.98465C22.9907 6.34837 23.0712 5.73764 23.2323 5.15246C23.3935 4.56472 23.619 4.01404 23.909 3.50041C24.199 2.98422 24.5498 2.51659 24.9612 2.09751C25.3727 1.67587 25.8263 1.31557 26.3221 1.01659C26.8178 0.715056 27.352 0.482517 27.9245 0.318973C28.4971 0.152874 29.092 0.0698242 29.7092 0.0698242C30.5123 0.0698242 31.2869 0.211647 32.033 0.495294C32.7766 0.77894 33.4508 1.18652 34.0556 1.71804L32.6948 4.0562C32.3007 3.64479 31.8471 3.32153 31.334 3.08644C30.8184 2.8539 30.2768 2.73763 29.7092 2.73763C29.1391 2.73763 28.6049 2.85007 28.1067 3.07494C27.606 3.29981 27.1685 3.6039 26.7942 3.98721C26.42 4.37051 26.1238 4.81898 25.9056 5.33261C25.6875 5.84879 25.5784 6.39948 25.5784 6.98465C25.5784 7.5775 25.6875 8.13329 25.9056 8.65203C26.1238 9.16822 26.42 9.62052 26.7942 10.0089C27.1685 10.3948 27.606 10.7002 28.1067 10.925C28.6049 11.1499 29.1391 11.2623 29.7092 11.2623C30.0364 11.2623 30.3537 11.2215 30.661 11.1397C30.9709 11.0579 31.2646 10.9455 31.5422 10.8024V6.98465H34.0556ZM38.5136 8.27639H43.7226V5.58942C43.7226 5.22145 43.6544 4.87392 43.5181 4.54683C43.3818 4.21975 43.1959 3.93482 42.9604 3.69206C42.7249 3.4493 42.4485 3.25765 42.1313 3.1171C41.8115 2.97656 41.4732 2.90629 41.1162 2.90629C40.7593 2.90629 40.4222 2.97656 40.1049 3.1171C39.7876 3.25765 39.5113 3.4493 39.2758 3.69206C39.0403 3.93482 38.8544 4.21975 38.7181 4.54683C38.5817 4.87392 38.5136 5.22145 38.5136 5.58942V8.27639ZM46.3289 5.58942V13.6388H43.7226V10.9519H38.5136V13.6388H35.9147V5.58942C35.9147 4.84837 36.051 4.15203 36.3236 3.50041C36.5963 2.84879 36.9669 2.27894 37.4353 1.79087C37.9063 1.30535 38.4578 0.922041 39.0899 0.64095C39.722 0.359859 40.3974 0.219315 41.1162 0.219315C41.8375 0.219315 42.5142 0.359859 43.1463 0.64095C43.7784 0.922041 44.3311 1.30535 44.8045 1.79087C45.2755 2.27894 45.6473 2.84879 45.92 3.50041C46.1926 4.15203 46.3289 4.84837 46.3289 5.58942ZM58.9443 6.98465V12.2819C58.3395 12.8135 57.6653 13.221 56.9217 13.5047C56.1756 13.7883 55.401 13.9302 54.5979 13.9302C53.9807 13.9302 53.3858 13.8471 52.8133 13.681C52.2407 13.5149 51.7065 13.2811 51.2108 12.9796C50.715 12.6755 50.2614 12.3139 49.85 11.8948C49.4385 11.4732 49.0877 11.0043 48.7977 10.4881C48.5053 9.97444 48.2797 9.4212 48.1211 8.82835C47.9599 8.23551 47.8794 7.62094 47.8794 6.98465C47.8794 6.34837 47.9599 5.73764 48.1211 5.15246C48.2797 4.56472 48.5053 4.01404 48.7977 3.50041C49.0877 2.98422 49.4385 2.51659 49.85 2.09751C50.2614 1.67587 50.715 1.31557 51.2108 1.01659C51.7065 0.715056 52.2407 0.482517 52.8133 0.318973C53.3858 0.152874 53.9807 0.0698242 54.5979 0.0698242C55.401 0.0698242 56.1756 0.211647 56.9217 0.495294C57.6653 0.77894 58.3395 1.18652 58.9443 1.71804L57.5835 4.0562C57.1894 3.64479 56.7358 3.32153 56.2227 3.08644C55.7071 2.8539 55.1655 2.73763 54.5979 2.73763C54.0278 2.73763 53.4937 2.85007 52.9954 3.07494C52.4947 3.29981 52.0572 3.6039 51.683 3.98721C51.3087 4.37051 51.0125 4.81898 50.7943 5.33261C50.5762 5.84879 50.4672 6.39948 50.4672 6.98465C50.4672 7.5775 50.5762 8.13329 50.7943 8.65203C51.0125 9.16822 51.3087 9.62052 51.683 10.0089C52.0572 10.3948 52.4947 10.7002 52.9954 10.925C53.4937 11.1499 54.0278 11.2623 54.5979 11.2623C54.9226 11.2623 55.2399 11.2215 55.5497 11.1397C55.8571 11.0579 56.1508 10.9455 56.4309 10.8024V6.98465H58.9443ZM69.8717 10.9519V13.6388H60.9484V0.219315H69.8717V2.90629H63.5547V5.58942H67.8305V8.27639H63.5547V10.9519H69.8717Z" fill="#1A5CEB"/>
</g>
</g>
</g>
</g>
</g>
</g>
</g>
<defs>
<clipPath id="clip0_4248_35521">
<rect width="70" height="14" fill="white"/>
</clipPath>
<clipPath id="clip1_4248_35521">
<rect width="69.7553" height="13.8603" fill="white" transform="translate(0.122314 0.0698242)"/>
</clipPath>
<clipPath id="clip2_4248_35521">
<rect width="69.7553" height="13.8603" fill="white" transform="translate(0.122314 0.0698242)"/>
</clipPath>
<clipPath id="clip3_4248_35521">
<rect width="69.7553" height="13.8603" fill="white" transform="translate(0.122314 0.0698242)"/>
</clipPath>
<clipPath id="clip4_4248_35521">
<rect width="69.7553" height="13.8603" fill="white" transform="translate(0.122314 0.0698242)"/>
</clipPath>
<clipPath id="clip5_4248_35521">
<rect width="69.7553" height="13.8603" fill="white" transform="translate(0.122314 0.0698242)"/>
</clipPath>
<clipPath id="clip6_4248_35521">
<rect width="69.7553" height="13.8603" fill="white" transform="translate(0.122314 0.0698242)"/>
</clipPath>
</defs>
</svg>
