<svg width="30" height="28" viewBox="0 0 30 28" fill="none" xmlns="http://www.w3.org/2000/svg">
<path d="M0.5 4C0.5 2.067 2.067 0.5 4 0.5H26C27.933 0.5 29.5 2.067 29.5 4V24C29.5 25.933 27.933 27.5 26 27.5H4C2.067 27.5 0.5 25.933 0.5 24V4Z" fill="white"/>
<path d="M0.5 4C0.5 2.067 2.067 0.5 4 0.5H26C27.933 0.5 29.5 2.067 29.5 4V24C29.5 25.933 27.933 27.5 26 27.5H4C2.067 27.5 0.5 25.933 0.5 24V4Z" stroke="#ECECEC"/>
<path d="M21.75 16.3212C21.75 18.3951 20.3664 20.0808 18.3137 20.0757H11.6863C9.63357 20.0808 8.25 18.3951 8.25 16.3212V11.6852C8.25 9.61353 9.63357 7.92566 11.6863 7.92566H18.3137C20.3664 7.92566 21.75 9.61353 21.75 11.6852V16.3212Z" stroke="#1F1F1F" stroke-width="1.125" stroke-linecap="round" stroke-linejoin="round"/>
<path d="M18.9864 11.8741L15.9872 14.3129C15.4224 14.7617 14.6219 14.7617 14.0571 14.3129L11.0324 11.8741" stroke="#1F1F1F" stroke-width="1.125" stroke-linecap="round" stroke-linejoin="round"/>
</svg>
