<svg width="30" height="28" viewBox="0 0 30 28" fill="none" xmlns="http://www.w3.org/2000/svg">
<path d="M0.5 4C0.5 2.067 2.067 0.5 4 0.5H26C27.933 0.5 29.5 2.067 29.5 4V24C29.5 25.933 27.933 27.5 26 27.5H4C2.067 27.5 0.5 25.933 0.5 24V4Z" fill="white"/>
<path d="M0.5 4C0.5 2.067 2.067 0.5 4 0.5H26C27.933 0.5 29.5 2.067 29.5 4V24C29.5 25.933 27.933 27.5 26 27.5H4C2.067 27.5 0.5 25.933 0.5 24V4Z" stroke="#ECECEC"/>
<path d="M16.9337 8C19.3107 8.26397 21.1887 10.1394 21.4552 12.5163" stroke="#1F1F1F" stroke-width="0.964286" stroke-linecap="round" stroke-linejoin="round"/>
<path d="M16.9337 10.2755C18.0712 10.4964 18.96 11.386 19.1816 12.5234" stroke="#1F1F1F" stroke-width="0.964286" stroke-linecap="round" stroke-linejoin="round"/>
<path fill-rule="evenodd" clip-rule="evenodd" d="M14.8005 14.4048C17.3624 16.9661 17.9436 14.003 19.5748 15.6331C21.1474 17.2053 22.052 17.5203 20.0588 19.5122C19.8093 19.7128 18.2235 22.1259 12.6508 16.5546C7.07742 10.9826 9.48907 9.39526 9.6897 9.14575C11.687 7.14827 11.9972 8.05741 13.5699 9.62961C15.2004 11.2604 12.2385 11.8435 14.8005 14.4048Z" stroke="#1F1F1F" stroke-width="0.964286" stroke-linecap="round" stroke-linejoin="round"/>
</svg>
